PathFileType	4	(X/Y/Z) shrug_0kg_1.trc																										
DataRate	CameraRate	NumFrames	NumMarkers	Units	OrigDataRate	OrigDataStartFrame	OrigNumFrames																					
100	100	43	9	mm	100	331	462																					
Frame#	Time	gu			centelbow			EpL			centpxt8			centijc7			ij			ts			aa			ai		
		X1	Y1	Z1	X2	Y2	Z2	X3	Y3	Z3	X4	Y4	Z4	X5	Y5	Z5	X6	Y6	Z6	X7	Y7	Z7	X8	Y8	Z8	X9	Y9	Z9
330	3.3	-80.862	-14.06	164.799	-108.924	-256.896	199.832	-86.261	-252.216	222.28	-46.816	-153.158	-8.669	-46.816	31.938	-8.669	0	0	0	-139.857	30.802	53.107	-108.252	26.031	168.012	-163.858	-79.899	60.522
331	3.31	-81.006	-14.16	164.962	-109.09	-256.99	200.022	-86.44	-252.306	222.482	-46.816	-153.158	-8.669	-46.816	31.938	-8.669	0	0	0	-139.857	30.664	53.124	-108.302	25.885	168.042	-163.875	-80.034	60.524
332	3.32	-81.084	-14.137	164.943	-109.133	-256.966	200.037	-86.492	-252.273	222.505	-46.816	-153.158	-8.669	-46.816	31.938	-8.669	0	0	0	-139.916	30.646	52.992	-108.381	25.855	167.915	-163.925	-80.055	60.374
333	3.33	-81.068	-14.088	164.745	-109.063	-256.918	199.873	-86.423	-252.217	222.34	-46.816	-153.158	-8.669	-46.816	31.938	-8.669	0	0	0	-139.952	30.703	52.877	-108.424	25.909	167.802	-163.94	-80.003	60.248
334	3.34	-81.039	-14.041	164.548	-108.963	-256.873	199.724	-86.322	-252.161	222.187	-46.816	-153.158	-8.669	-46.816	31.938	-8.669	0	0	0	-139.93	30.685	52.913	-108.425	25.904	167.845	-163.902	-80.025	60.287
335	3.35	-81.055	-13.962	164.414	-108.874	-256.794	199.669	-86.232	-252.066	222.128	-46.816	-153.158	-8.669	-46.816	31.938	-8.669	0	0	0	-139.875	30.559	53.045	-108.403	25.793	167.987	-163.843	-80.151	60.425
336	3.36	-81.086	-13.869	164.355	-108.808	-256.698	199.711	-86.171	-251.951	222.172	-46.816	-153.158	-8.669	-46.816	31.938	-8.669	0	0	0	-139.825	30.452	53.181	-108.385	25.687	168.131	-163.799	-80.257	60.557
337	3.37	-81.123	-13.816	164.392	-108.816	-256.633	199.848	-86.191	-251.872	222.318	-46.816	-153.158	-8.669	-46.816	31.938	-8.669	0	0	0	-139.83	30.457	53.293	-108.428	25.691	168.254	-163.808	-80.252	60.66
338	3.38	-81.196	-13.816	164.463	-108.927	-256.618	199.995	-86.318	-251.849	222.479	-46.816	-153.158	-8.669	-46.816	31.938	-8.669	0	0	0	-139.872	30.539	53.4	-108.526	25.782	168.376	-163.849	-80.17	60.762
339	3.39	-81.278	-13.803	164.507	-109.056	-256.592	200.091	-86.46	-251.819	222.587	-46.816	-153.158	-8.669	-46.816	31.938	-8.669	0	0	0	-139.849	30.622	53.521	-108.567	25.877	168.515	-163.828	-80.087	60.882
340	3.4	-81.308	-13.727	164.54	-109.091	-256.509	200.166	-86.505	-251.73	222.67	-46.816	-153.158	-8.669	-46.816	31.938	-8.669	0	0	0	-139.745	30.632	53.603	-108.504	25.895	168.609	-163.727	-80.076	60.963
341	3.41	-81.288	-13.674	164.527	-109.043	-256.453	200.199	-86.465	-251.665	222.71	-46.816	-153.158	-8.669	-46.816	31.938	-8.669	0	0	0	-139.67	30.533	53.535	-108.426	25.791	168.54	-163.655	-80.175	60.892
342	3.42	-81.27	-13.711	164.409	-108.985	-256.485	200.144	-86.415	-251.685	222.659	-46.816	-153.158	-8.669	-46.816	31.938	-8.669	0	0	0	-139.672	30.411	53.318	-108.395	25.66	168.314	-163.654	-80.297	60.673
343	3.43	-81.284	-13.747	164.283	-108.942	-256.516	200.093	-86.378	-251.703	222.612	-46.816	-153.158	-8.669	-46.816	31.938	-8.669	0	0	0	-139.675	30.423	53.134	-108.375	25.67	168.124	-163.647	-80.288	60.489
344	3.44	-81.357	-13.746	164.326	-108.962	-256.512	200.202	-86.405	-251.686	222.726	-46.816	-153.158	-8.669	-46.816	31.938	-8.669	0	0	0	-139.622	30.574	53.133	-108.334	25.83	168.126	-163.573	-80.142	60.489
345	3.45	-81.493	-13.818	164.543	-109.095	-256.578	200.459	-86.547	-251.747	222.99	-46.816	-153.158	-8.669	-46.816	31.938	-8.669	0	0	0	-139.538	30.675	53.279	-108.289	25.945	168.283	-163.469	-80.045	60.632
346	3.46	-81.608	-13.977	164.776	-109.251	-256.73	200.714	-86.709	-251.898	223.251	-46.816	-153.158	-8.669	-46.816	31.938	-8.669	0	0	0	-139.471	30.594	53.487	-108.268	25.868	168.504	-163.393	-80.128	60.832
347	3.47	-81.617	-14.066	164.934	-109.29	-256.811	200.901	-86.752	-251.978	223.442	-46.816	-153.158	-8.669	-46.816	31.938	-8.669	0	0	0	-139.438	30.412	53.718	-108.277	25.673	168.745	-163.374	-80.309	61.045
348	3.48	-81.559	-13.973	165.016	-109.207	-256.713	201.033	-86.675	-251.872	223.578	-46.816	-153.158	-8.669	-46.816	31.938	-8.669	0	0	0	-139.447	30.296	53.881	-108.315	25.538	168.916	-163.407	-80.42	61.19
349	3.49	-81.508	-13.787	164.992	-109.077	-256.529	201.053	-86.551	-251.675	223.603	-46.816	-153.158	-8.669	-46.816	31.938	-8.669	0	0	0	-139.498	30.331	53.894	-108.373	25.561	168.93	-163.463	-80.385	61.191
350	3.5	-81.484	-13.692	164.818	-108.964	-256.443	200.887	-86.443	-251.58	223.439	-46.816	-153.158	-8.669	-46.816	31.938	-8.669	0	0	0	-139.545	30.473	53.816	-108.414	25.698	168.85	-163.487	-80.249	61.103
351	3.51	-81.49	-13.697	164.546	-108.908	-256.459	200.591	-86.387	-251.592	223.141	-46.816	-153.158	-8.669	-46.816	31.938	-8.669	0	0	0	-139.532	30.622	53.75	-108.402	25.841	168.785	-163.448	-80.106	61.025
352	3.52	-81.536	-13.646	164.313	-108.913	-256.415	200.341	-86.39	-251.546	222.89	-46.816	-153.158	-8.669	-46.816	31.938	-8.669	0	0	0	-139.482	30.672	53.703	-108.36	25.884	168.739	-163.393	-80.057	60.966
353	3.53	-81.634	-13.558	164.268	-109.003	-256.326	200.311	-86.479	-251.456	222.859	-46.816	-153.158	-8.669	-46.816	31.938	-8.669	0	0	0	-139.46	30.537	53.676	-108.343	25.745	168.713	-163.396	-80.187	60.942
354	3.54	-81.773	-13.619	164.437	-109.204	-256.374	200.519	-86.682	-251.505	223.068	-46.816	-153.158	-8.669	-46.816	31.938	-8.669	0	0	0	-139.471	30.275	53.734	-108.355	25.491	168.771	-163.446	-80.44	61.018
355	3.55	-81.882	-13.793	164.671	-109.419	-256.53	200.796	-86.899	-251.665	223.349	-46.816	-153.158	-8.669	-46.816	31.938	-8.669	0	0	0	-139.486	30.08	53.863	-108.37	25.313	168.901	-163.484	-80.628	61.17
356	3.56	-81.875	-13.835	164.795	-109.47	-256.56	200.956	-86.957	-251.696	223.515	-46.816	-153.158	-8.669	-46.816	31.938	-8.669	0	0	0	-139.486	30.064	53.978	-108.376	25.312	169.019	-163.49	-80.642	61.301
357	3.57	-81.73	-13.629	164.745	-109.31	-256.352	200.932	-86.805	-251.482	223.499	-46.816	-153.158	-8.669	-46.816	31.938	-8.669	0	0	0	-139.463	30.188	54.04	-108.372	25.445	169.087	-163.465	-80.519	61.367
358	3.58	-81.552	-13.265	164.568	-109.098	-255.989	200.768	-86.606	-251.112	223.345	-46.816	-153.158	-8.669	-46.816	31.938	-8.669	0	0	0	-139.422	30.387	54.017	-108.353	25.651	169.069	-163.414	-80.321	61.341
359	3.59	-81.483	-12.922	164.404	-109.058	-255.641	200.619	-86.58	-250.761	223.21	-46.816	-153.158	-8.669	-46.816	31.938	-8.669	0	0	0	-139.379	30.567	53.887	-108.308	25.842	168.94	-163.365	-80.142	61.221
360	3.6	-81.557	-12.745	164.369	-109.245	-255.445	200.624	-86.781	-250.568	223.229	-46.816	-153.158	-8.669	-46.816	31.938	-8.669	0	0	0	-139.359	30.578	53.712	-108.255	25.87	168.757	-163.367	-80.125	61.077
361	3.61	-81.658	-12.695	164.379	-109.507	-255.366	200.707	-87.054	-250.493	223.325	-46.816	-153.158	-8.669	-46.816	31.938	-8.669	0	0	0	-139.411	30.416	53.526	-108.269	25.728	168.561	-163.471	-80.272	60.933
362	3.62	-81.652	-12.643	164.321	-109.656	-255.281	200.744	-87.215	-250.41	223.374	-46.816	-153.158	-8.669	-46.816	31.938	-8.669	0	0	0	-139.537	30.305	53.308	-108.368	25.639	168.336	-163.64	-80.371	60.754
363	3.63	-81.549	-12.583	164.275	-109.699	-255.19	200.797	-87.273	-250.318	223.442	-46.816	-153.158	-8.669	-46.816	31.938	-8.669	0	0	0	-139.637	30.403	53.149	-108.452	25.765	168.174	-163.747	-80.269	60.627
364	3.64	-81.508	-12.556	164.352	-109.807	-255.132	200.961	-87.396	-250.262	223.62	-46.816	-153.158	-8.669	-46.816	31.938	-8.669	0	0	0	-139.653	30.598	53.171	-108.464	25.993	168.197	-163.759	-80.073	60.681
365	3.65	-81.585	-12.499	164.497	-110.016	-255.05	201.169	-87.61	-250.184	223.835	-46.816	-153.158	-8.669	-46.816	31.938	-8.669	0	0	0	-139.651	30.706	53.317	-108.461	26.128	168.343	-163.775	-79.959	60.858
366	3.66	-81.65	-12.377	164.586	-110.16	-254.913	201.296	-87.749	-250.052	223.958	-46.816	-153.158	-8.669	-46.816	31.938	-8.669	0	0	0	-139.627	30.721	53.439	-108.428	26.159	168.463	-163.789	-79.934	61.008
367	3.67	-81.635	-12.273	164.579	-110.184	-254.802	201.313	-87.764	-249.944	223.967	-46.816	-153.158	-8.669	-46.816	31.938	-8.669	0	0	0	-139.501	30.761	53.482	-108.284	26.21	168.502	-163.698	-79.885	61.076
368	3.68	-81.663	-12.256	164.547	-110.248	-254.775	201.312	-87.823	-249.918	223.961	-46.816	-153.158	-8.669	-46.816	31.938	-8.669	0	0	0	-139.335	30.826	53.5	-108.101	26.296	168.516	-163.551	-79.813	61.122
369	3.69	-81.821	-12.304	164.566	-110.456	-254.811	201.374	-88.029	-249.955	224.021	-46.816	-153.158	-8.669	-46.816	31.938	-8.669	0	0	0	-139.324	30.812	53.597	-108.09	26.316	168.614	-163.553	-79.822	61.257
370	3.7	-81.999	-12.382	164.569	-110.683	-254.879	201.405	-88.253	-250.026	224.049	-46.816	-153.158	-8.669	-46.816	31.938	-8.669	0	0	0	-139.508	30.73	53.755	-108.274	26.27	168.774	-163.759	-79.896	61.455
371	3.71	-82.071	-12.458	164.458	-110.784	-254.951	201.291	-88.348	-250.103	223.93	-46.816	-153.158	-8.669	-46.816	31.938	-8.669	0	0	0	-139.706	30.69	53.769	-108.445	26.242	168.781	-163.988	-79.928	61.496
372	3.72	-82.064	-12.487	164.349	-110.792	-254.982	201.166	-88.353	-250.136	223.803	-46.816	-153.158	-8.669	-46.816	31.938	-8.669	0	0	0	-139.769	30.717	53.541	-108.464	26.259	168.54	-164.074	-79.895	61.274
